{
    "asset" : {
        "generator" : "Khronos glTF Blender I/O v1.3.48",
        "version" : "2.0"
    },
    "scene" : 0,
    "scenes" : [
        {
            "name" : "Scene",
            "nodes" : [
                0
            ]
        }
    ],
    "nodes" : [
        {
            "mesh" : 0,
            "name" : "Minekuzi"
        }
    ],
    "materials" : [
        {
            "doubleSided" : true,
            "emissiveFactor" : [
                0,
                0,
                0
            ],
            "name" : "Minekuzi",
            "pbrMetallicRoughness" : {
                "baseColorTexture" : {
                    "index" : 0,
                    "texCoord" : 0
                },
                "metallicFactor" : 0,
                "roughnessFactor" : 0.5
            }
        }
    ],
    "meshes" : [
        {
            "name" : "\u7403.006",
            "primitives" : [
                {
                    "attributes" : {
                        "POSITION" : 0,
                        "NORMAL" : 1,
                        "TEXCOORD_0" : 2
                    },
                    "indices" : 3,
                    "material" : 0
                }
            ]
        }
    ],
    "textures" : [
        {
            "source" : 0
        }
    ],
    "images" : [
        {
            "mimeType" : "image/png",
            "name" : "Minekuzi",
            "uri" : "Minekuzi.png"
        }
    ],
    "accessors" : [
        {
            "bufferView" : 0,
            "componentType" : 5126,
            "count" : 5204,
            "max" : [
                1.0501675605773926,
                1.5096837282180786,
                2.7268669605255127
            ],
            "min" : [
                -1.0541038513183594,
                -0.6561915874481201,
                -4.061355113983154
            ],
            "type" : "VEC3"
        },
        {
            "bufferView" : 1,
            "componentType" : 5126,
            "count" : 5204,
            "type" : "VEC3"
        },
        {
            "bufferView" : 2,
            "componentType" : 5126,
            "count" : 5204,
            "type" : "VEC2"
        },
        {
            "bufferView" : 3,
            "componentType" : 5123,
            "count" : 6204,
            "type" : "SCALAR"
        }
    ],
    "bufferViews" : [
        {
            "buffer" : 0,
            "byteLength" : 62448,
            "byteOffset" : 0
        },
        {
            "buffer" : 0,
            "byteLength" : 62448,
            "byteOffset" : 62448
        },
        {
            "buffer" : 0,
            "byteLength" : 41632,
            "byteOffset" : 124896
        },
        {
            "buffer" : 0,
            "byteLength" : 12408,
            "byteOffset" : 166528
        }
    ],
    "buffers" : [
        {
            "byteLength" : 178936,
            "uri" : "Minekuzi.bin"
        }
    ]
}
