{
    "asset" : {
        "generator" : "Khronos glTF Blender I/O v1.5.17",
        "version" : "2.0"
    },
    "scene" : 0,
    "scenes" : [
        {
            "name" : "Scene",
            "nodes" : [
                0
            ]
        }
    ],
    "nodes" : [
        {
            "mesh" : 0,
            "name" : "\u5186\u67f1.002",
            "rotation" : [
                0,
                0.12093574553728104,
                0,
                0.9926603436470032
            ],
            "scale" : [
                1.1731432676315308,
                1.1731432676315308,
                1.1731432676315308
            ],
            "translation" : [
                0.19810090959072113,
                6.7897443771362305,
                0
            ]
        }
    ],
    "materials" : [
        {
            "doubleSided" : true,
            "name" : "Tree",
            "pbrMetallicRoughness" : {
                "baseColorTexture" : {
                    "index" : 0
                },
                "metallicFactor" : 0,
                "roughnessFactor" : 0.5
            }
        }
    ],
    "meshes" : [
        {
            "name" : "\u5186\u67f1.010",
            "primitives" : [
                {
                    "attributes" : {
                        "POSITION" : 0,
                        "NORMAL" : 1,
                        "TEXCOORD_0" : 2
                    },
                    "indices" : 3,
                    "material" : 0
                }
            ]
        }
    ],
    "textures" : [
        {
            "sampler" : 0,
            "source" : 0
        }
    ],
    "images" : [
        {
            "mimeType" : "image/png",
            "name" : "Tree",
            "uri" : "Tree.png"
        }
    ],
    "accessors" : [
        {
            "bufferView" : 0,
            "componentType" : 5126,
            "count" : 239,
            "max" : [
                2.0286409854888916,
                1,
                1.9960507154464722
            ],
            "min" : [
                -2.030301332473755,
                -7.586583614349365,
                -2.1744558811187744
            ],
            "type" : "VEC3"
        },
        {
            "bufferView" : 1,
            "componentType" : 5126,
            "count" : 239,
            "type" : "VEC3"
        },
        {
            "bufferView" : 2,
            "componentType" : 5126,
            "count" : 239,
            "type" : "VEC2"
        },
        {
            "bufferView" : 3,
            "componentType" : 5123,
            "count" : 240,
            "type" : "SCALAR"
        }
    ],
    "bufferViews" : [
        {
            "buffer" : 0,
            "byteLength" : 2868,
            "byteOffset" : 0
        },
        {
            "buffer" : 0,
            "byteLength" : 2868,
            "byteOffset" : 2868
        },
        {
            "buffer" : 0,
            "byteLength" : 1912,
            "byteOffset" : 5736
        },
        {
            "buffer" : 0,
            "byteLength" : 480,
            "byteOffset" : 7648
        }
    ],
    "samplers" : [
        {
            "magFilter" : 9729,
            "minFilter" : 9987
        }
    ],
    "buffers" : [
        {
            "byteLength" : 8128,
            "uri" : "Tree.bin"
        }
    ]
}
