{
    "asset" : {
        "generator" : "Khronos glTF Blender I/O v1.5.17",
        "version" : "2.0"
    },
    "scene" : 0,
    "scenes" : [
        {
            "name" : "Scene",
            "nodes" : [
                0
            ]
        }
    ],
    "nodes" : [
        {
            "mesh" : 0,
            "name" : "Stage_Fance"
        }
    ],
    "materials" : [
        {
            "doubleSided" : true,
            "name" : "Stage_Fence",
            "pbrMetallicRoughness" : {
                "baseColorTexture" : {
                    "index" : 0
                },
                "metallicFactor" : 0,
                "roughnessFactor" : 0.5
            }
        }
    ],
    "meshes" : [
        {
            "name" : "\u7acb\u65b9\u4f53.144",
            "primitives" : [
                {
                    "attributes" : {
                        "POSITION" : 0,
                        "NORMAL" : 1,
                        "TEXCOORD_0" : 2
                    },
                    "indices" : 3,
                    "material" : 0
                }
            ]
        }
    ],
    "textures" : [
        {
            "sampler" : 0,
            "source" : 0
        }
    ],
    "images" : [
        {
            "mimeType" : "image/png",
            "name" : "Stage_Fence",
            "uri" : "Stage_Fence.png"
        }
    ],
    "accessors" : [
        {
            "bufferView" : 0,
            "componentType" : 5126,
            "count" : 37629,
            "max" : [
                100.19268035888672,
                6.880478858947754,
                123.83763122558594
            ],
            "min" : [
                -30.791902542114258,
                1.0997531414031982,
                -90.55020141601562
            ],
            "type" : "VEC3"
        },
        {
            "bufferView" : 1,
            "componentType" : 5126,
            "count" : 37629,
            "type" : "VEC3"
        },
        {
            "bufferView" : 2,
            "componentType" : 5126,
            "count" : 37629,
            "type" : "VEC2"
        },
        {
            "bufferView" : 3,
            "componentType" : 5123,
            "count" : 39576,
            "type" : "SCALAR"
        }
    ],
    "bufferViews" : [
        {
            "buffer" : 0,
            "byteLength" : 451548,
            "byteOffset" : 0
        },
        {
            "buffer" : 0,
            "byteLength" : 451548,
            "byteOffset" : 451548
        },
        {
            "buffer" : 0,
            "byteLength" : 301032,
            "byteOffset" : 903096
        },
        {
            "buffer" : 0,
            "byteLength" : 79152,
            "byteOffset" : 1204128
        }
    ],
    "samplers" : [
        {
            "magFilter" : 9729,
            "minFilter" : 9987
        }
    ],
    "buffers" : [
        {
            "byteLength" : 1283280,
            "uri" : "Stage_Fence.bin"
        }
    ]
}
